M48
; DRILL file KiCad 10.0.1 date 2026-07-12T20:40:28
; FORMAT={-:-/ absolute / inch / decimal}
; #@! TF.CreationDate,2026-07-12T20:40:28+10:00
; #@! TF.GenerationSoftware,Kicad,Pcbnew,10.0.1
; #@! TF.FileFunction,Plated,1,2,PTH
FMAT,2
INCH
; #@! TA.AperFunction,Plated,PTH,ViaDrill
T1C0.0100
; #@! TA.AperFunction,Plated,PTH,ViaDrill
T2C0.0120
; #@! TA.AperFunction,Plated,PTH,ComponentDrill
T3C0.0402
%
G90
G05
T1
X0.0551Y-0.1575
X0.0555Y-0.2756
X0.0555Y-0.3937
X0.0555Y-0.5118
X0.0555Y-0.6299
X0.0555Y-0.748
X0.0555Y-0.8661
X0.0555Y-0.9843
X0.0591Y-2.5236
X0.0787Y-0.0827
X0.0787Y-1.0472
X0.1181Y-1.1811
X0.1181Y-2.6575
X0.1437Y-1.5453
X0.1457Y-0.1929
X0.1457Y-0.311
X0.1457Y-0.4291
X0.1457Y-0.5472
X0.1457Y-0.6654
X0.1457Y-0.7835
X0.1457Y-0.9016
X0.1457Y-1.0197
X0.1476Y-2.1358
X0.1496Y-1.0866
X0.1496Y-1.1299
X0.1535Y-2.2559
X0.1575Y-1.437
X0.1575Y-1.9528
X0.1728Y-0.1575
X0.1732Y-0.2756
X0.1732Y-0.3937
X0.1732Y-0.5118
X0.1732Y-0.6299
X0.1732Y-0.748
X0.1732Y-0.8661
X0.1732Y-0.9843
X0.1772Y-2.7264
X0.1969Y-1.2835
X0.1969Y-2.1358
X0.2047Y-1.0945
X0.2047Y-1.5748
X0.2069Y-1.7197
X0.2087Y-1.689
X0.2126Y-1.6378
X0.2165Y-2.0079
X0.2244Y-1.9764
X0.2264Y-1.6142
X0.2264Y-1.811
X0.2264Y-1.8701
X0.2283Y-2.4685
X0.2362Y-2.7264
X0.248Y-3.185
X0.2559Y-2.1358
X0.2634Y-0.1929
X0.2634Y-0.311
X0.2634Y-0.4291
X0.2634Y-0.5472
X0.2634Y-0.6654
X0.2634Y-0.7835
X0.2634Y-0.9016
X0.2634Y-1.0197
X0.2746Y-1.9467
X0.2756Y-2.372
X0.2756Y-2.4311
X0.2835Y-1.5276
X0.2835Y-2.689
X0.2909Y-0.1575
X0.2913Y-0.2756
X0.2913Y-0.3937
X0.2913Y-0.5118
X0.2913Y-0.6299
X0.2913Y-0.748
X0.2913Y-0.8661
X0.2913Y-0.9843
X0.315Y-2.4724
X0.3228Y-1.9874
X0.3268Y-3.0
X0.3346Y-1.9587
X0.3504Y-2.689
X0.3815Y-0.1929
X0.3815Y-0.311
X0.3815Y-0.4291
X0.3815Y-0.5472
X0.3815Y-0.6654
X0.3815Y-0.7835
X0.3815Y-0.9016
X0.3815Y-1.0197
X0.3819Y-2.5591
X0.3898Y-1.874
X0.3937Y-2.0551
X0.4091Y-0.1575
X0.4094Y-0.2756
X0.4094Y-0.3937
X0.4094Y-0.5118
X0.4094Y-0.6299
X0.4094Y-0.748
X0.4094Y-0.8661
X0.4094Y-0.9843
X0.4232Y-1.7815
X0.4606Y-1.8819
X0.4996Y-0.1929
X0.4996Y-0.311
X0.4996Y-0.4291
X0.4996Y-0.5472
X0.4996Y-0.6654
X0.4996Y-0.7835
X0.4996Y-0.9016
X0.4996Y-1.0197
X0.5272Y-0.1575
X0.5276Y-0.2756
X0.5276Y-0.3937
X0.5276Y-0.5118
X0.5276Y-0.6299
X0.5276Y-0.748
X0.5276Y-0.8661
X0.5276Y-0.9843
X0.6177Y-0.1929
X0.6177Y-0.311
X0.6177Y-0.4291
X0.6177Y-0.5472
X0.6177Y-0.6654
X0.6177Y-0.7835
X0.6177Y-0.9016
X0.6177Y-1.0197
X0.6453Y-0.1575
X0.6457Y-0.2756
X0.6457Y-0.3937
X0.6457Y-0.5118
X0.6457Y-0.6299
X0.6457Y-0.748
X0.6457Y-0.8661
X0.6457Y-0.9843
X0.7358Y-0.1929
X0.7358Y-0.311
X0.7358Y-0.4291
X0.7358Y-0.5472
X0.7358Y-0.6654
X0.7358Y-0.7835
X0.7358Y-0.9016
X0.7358Y-1.0197
X0.7634Y-0.1575
X0.7638Y-0.2756
X0.7638Y-0.3937
X0.7638Y-0.5118
X0.7638Y-0.6299
X0.7638Y-0.748
X0.7638Y-0.8661
X0.7638Y-0.9843
X0.7756Y-1.0945
X0.8539Y-0.1929
X0.8539Y-0.311
X0.8539Y-0.4291
X0.8539Y-0.5472
X0.8539Y-0.6654
X0.8539Y-0.7835
X0.8539Y-0.9016
X0.8539Y-1.0197
X0.8815Y-0.1575
X0.8819Y-0.2756
X0.8819Y-0.3937
X0.8819Y-0.5118
X0.8819Y-0.6299
X0.8819Y-0.748
X0.8819Y-0.8661
X0.8819Y-0.9843
X0.9134Y-1.5197
X0.972Y-0.1929
X0.972Y-0.311
X0.972Y-0.4291
X0.972Y-0.5472
X0.972Y-0.6654
X0.972Y-0.7835
X0.972Y-0.9016
X0.972Y-1.0197
X0.9843Y-2.0394
X0.9843Y-2.5591
X0.9996Y-0.1575
X1.0Y-0.2756
X1.0Y-0.3937
X1.0Y-0.5118
X1.0Y-0.6299
X1.0Y-0.748
X1.0Y-0.8661
X1.0Y-0.9843
X1.0512Y-1.5197
X1.0902Y-0.1929
X1.0902Y-0.311
X1.0902Y-0.4291
X1.0902Y-0.5472
X1.0902Y-0.6654
X1.0902Y-0.7835
X1.0902Y-0.9016
X1.0902Y-1.0197
X1.1177Y-0.1575
X1.1181Y-0.2756
X1.1181Y-0.3937
X1.1181Y-0.5118
X1.1181Y-0.6299
X1.1181Y-0.748
X1.1181Y-0.8661
X1.1181Y-0.9843
X1.2083Y-0.1929
X1.2083Y-0.311
X1.2083Y-0.4291
X1.2083Y-0.5472
X1.2083Y-0.6654
X1.2083Y-0.7835
X1.2083Y-0.9016
X1.2083Y-1.0197
X1.2358Y-0.1575
X1.2362Y-0.2756
X1.2362Y-0.3937
X1.2362Y-0.5118
X1.2362Y-0.6299
X1.2362Y-0.748
X1.2362Y-0.8661
X1.2362Y-0.9843
X1.3264Y-0.1929
X1.3264Y-0.311
X1.3264Y-0.4291
X1.3264Y-0.5472
X1.3264Y-0.6654
X1.3264Y-0.7835
X1.3264Y-0.9016
X1.3264Y-1.0197
X1.3465Y-1.0945
X1.3539Y-0.1575
X1.3543Y-0.2756
X1.3543Y-0.3937
X1.3543Y-0.5118
X1.3543Y-0.6299
X1.3543Y-0.748
X1.3543Y-0.8661
X1.3543Y-0.9843
X1.4445Y-0.1929
X1.4445Y-0.311
X1.4445Y-0.4291
X1.4445Y-0.5472
X1.4445Y-0.6654
X1.4445Y-0.7835
X1.4445Y-0.9016
X1.4445Y-1.0197
X1.472Y-0.1575
X1.4724Y-0.2756
X1.4724Y-0.3937
X1.4724Y-0.5118
X1.4724Y-0.6299
X1.4724Y-0.748
X1.4724Y-0.8661
X1.4724Y-0.9843
X1.4843Y-1.8819
X1.5626Y-0.1929
X1.5626Y-0.311
X1.5626Y-0.4291
X1.5626Y-0.5472
X1.5626Y-0.6654
X1.5626Y-0.7835
X1.5626Y-0.9016
X1.5626Y-1.0197
X1.5902Y-0.1575
X1.5906Y-0.2756
X1.5906Y-0.3937
X1.5906Y-0.5118
X1.5906Y-0.6299
X1.5906Y-0.748
X1.5906Y-0.8661
X1.5906Y-0.9843
X1.6807Y-0.1929
X1.6807Y-0.311
X1.6807Y-0.4291
X1.6807Y-0.5472
X1.6807Y-0.6654
X1.6807Y-0.7835
X1.6807Y-0.9016
X1.6807Y-1.0197
X1.7083Y-0.1575
X1.7087Y-0.2756
X1.7087Y-0.3937
X1.7087Y-0.5118
X1.7087Y-0.6299
X1.7087Y-0.748
X1.7087Y-0.8661
X1.7087Y-0.9843
X1.7988Y-0.1929
X1.7988Y-0.311
X1.7988Y-0.4291
X1.7988Y-0.5472
X1.7988Y-0.6654
X1.7988Y-0.7835
X1.7988Y-0.9016
X1.7988Y-1.0197
X1.8264Y-0.1575
X1.8268Y-0.2756
X1.8268Y-0.3937
X1.8268Y-0.5118
X1.8268Y-0.6299
X1.8268Y-0.748
X1.8268Y-0.8661
X1.8268Y-0.9843
X1.9169Y-0.1929
X1.9169Y-0.311
X1.9169Y-0.4291
X1.9169Y-0.5472
X1.9169Y-0.6654
X1.9169Y-0.7835
X1.9169Y-0.9016
X1.9169Y-1.0197
X1.9173Y-1.0945
T2
X0.2539Y-3.0709
T3
X0.7343Y-3.0764
X1.2343Y-3.0764
M30
