%TF.GenerationSoftware,KiCad,Pcbnew,10.0.1*%
%TF.CreationDate,2026-07-12T20:40:28+10:00*%
%TF.ProjectId,business card,62757369-6e65-4737-9320-636172642e6b,rev?*%
%TF.SameCoordinates,Original*%
%TF.FileFunction,Legend,Bot*%
%TF.FilePolarity,Positive*%
%FSLAX46Y46*%
G04 Gerber Fmt 4.6, Leading zero omitted, Abs format (unit mm)*
G04 Created by KiCad (PCBNEW 10.0.1) date 2026-07-12 20:40:28*
%MOMM*%
%LPD*%
G01*
G04 APERTURE LIST*
G04 Aperture macros list*
%AMRoundRect*
0 Rectangle with rounded corners*
0 $1 Rounding radius*
0 $2 $3 $4 $5 $6 $7 $8 $9 X,Y pos of 4 corners*
0 Add a 4 corners polygon primitive as box body*
4,1,4,$2,$3,$4,$5,$6,$7,$8,$9,$2,$3,0*
0 Add four circle primitives for the rounded corners*
1,1,$1+$1,$2,$3*
1,1,$1+$1,$4,$5*
1,1,$1+$1,$6,$7*
1,1,$1+$1,$8,$9*
0 Add four rect primitives between the rounded corners*
20,1,$1+$1,$2,$3,$4,$5,0*
20,1,$1+$1,$4,$5,$6,$7,0*
20,1,$1+$1,$6,$7,$8,$9,0*
20,1,$1+$1,$8,$9,$2,$3,0*%
G04 Aperture macros list end*
%ADD10C,0.150000*%
%ADD11C,0.120000*%
%ADD12C,0.900000*%
%ADD13RoundRect,0.140000X-0.140000X-0.170000X0.140000X-0.170000X0.140000X0.170000X-0.140000X0.170000X0*%
%ADD14R,2.000000X2.000000*%
%ADD15C,2.000000*%
%ADD16R,2.400000X0.740000*%
G04 APERTURE END LIST*
D10*
X18764700Y-42468571D02*
X18764700Y-43611429D01*
X19336128Y-43040000D02*
X18193271Y-43040000D01*
X18764700Y-64868571D02*
X18764700Y-66011429D01*
X18764700Y-74428571D02*
X18764700Y-75571429D01*
X31464700Y-42468571D02*
X31464700Y-43611429D01*
X31464700Y-64868571D02*
X31464700Y-66011429D01*
X32036128Y-65440000D02*
X30893271Y-65440000D01*
X31464700Y-74428571D02*
X31464700Y-75571429D01*
X32036128Y-75000000D02*
X30893271Y-75000000D01*
%TO.C,C96*%
D11*
X29392164Y-12640000D02*
X29607836Y-12640000D01*
X29392164Y-13360000D02*
X29607836Y-13360000D01*
%TO.C,C48*%
X11392164Y-12640000D02*
X11607836Y-12640000D01*
X11392164Y-13360000D02*
X11607836Y-13360000D01*
%TO.C,C118*%
X38392164Y-3640000D02*
X38607836Y-3640000D01*
X38392164Y-4360000D02*
X38607836Y-4360000D01*
%TO.C,C81*%
X41392164Y-15640000D02*
X41607836Y-15640000D01*
X41392164Y-16360000D02*
X41607836Y-16360000D01*
%TO.C,C16*%
X14392164Y-6640000D02*
X14607836Y-6640000D01*
X14392164Y-7360000D02*
X14607836Y-7360000D01*
%TO.C,C117*%
X35392164Y-21640000D02*
X35607836Y-21640000D01*
X35392164Y-22360000D02*
X35607836Y-22360000D01*
%TO.C,C40*%
X14392164Y-9640000D02*
X14607836Y-9640000D01*
X14392164Y-10360000D02*
X14607836Y-10360000D01*
%TO.C,C99*%
X20392164Y-18640000D02*
X20607836Y-18640000D01*
X20392164Y-19360000D02*
X20607836Y-19360000D01*
%TO.C,C84*%
X41392164Y-18640000D02*
X41607836Y-18640000D01*
X41392164Y-19360000D02*
X41607836Y-19360000D01*
%TO.C,C20*%
X11392164Y-3640000D02*
X11607836Y-3640000D01*
X11392164Y-4360000D02*
X11607836Y-4360000D01*
%TO.C,C70*%
X29392164Y-3640000D02*
X29607836Y-3640000D01*
X29392164Y-4360000D02*
X29607836Y-4360000D01*
%TO.C,C15*%
X17392164Y-3640000D02*
X17607836Y-3640000D01*
X17392164Y-4360000D02*
X17607836Y-4360000D01*
%TO.C,C87*%
X38392164Y-6640000D02*
X38607836Y-6640000D01*
X38392164Y-7360000D02*
X38607836Y-7360000D01*
%TO.C,C36*%
X8392164Y-21640000D02*
X8607836Y-21640000D01*
X8392164Y-22360000D02*
X8607836Y-22360000D01*
%TO.C,C129*%
X26392164Y-24640000D02*
X26607836Y-24640000D01*
X26392164Y-25360000D02*
X26607836Y-25360000D01*
%TO.C,C93*%
X44392164Y-12640000D02*
X44607836Y-12640000D01*
X44392164Y-13360000D02*
X44607836Y-13360000D01*
%TO.C,C115*%
X38392164Y-18640000D02*
X38607836Y-18640000D01*
X38392164Y-19360000D02*
X38607836Y-19360000D01*
%TO.C,C124*%
X35392164Y-24640000D02*
X35607836Y-24640000D01*
X35392164Y-25360000D02*
X35607836Y-25360000D01*
%TO.C,C46*%
X2392164Y-12640000D02*
X2607836Y-12640000D01*
X2392164Y-13360000D02*
X2607836Y-13360000D01*
%TO.C,C65*%
X20392164Y-12640000D02*
X20607836Y-12640000D01*
X20392164Y-13360000D02*
X20607836Y-13360000D01*
%TO.C,C66*%
X2392164Y-18640000D02*
X2607836Y-18640000D01*
X2392164Y-19360000D02*
X2607836Y-19360000D01*
%TO.C,C106*%
X47392164Y-18640000D02*
X47607836Y-18640000D01*
X47392164Y-19360000D02*
X47607836Y-19360000D01*
%TO.C,C102*%
X35392164Y-3640000D02*
X35607836Y-3640000D01*
X35392164Y-4360000D02*
X35607836Y-4360000D01*
%TO.C,C13*%
X20392164Y-3640000D02*
X20607836Y-3640000D01*
X20392164Y-4360000D02*
X20607836Y-4360000D01*
%TO.C,C95*%
X11392164Y-9640000D02*
X11607836Y-9640000D01*
X11392164Y-10360000D02*
X11607836Y-10360000D01*
%TO.C,C53*%
X14392164Y-21640000D02*
X14607836Y-21640000D01*
X14392164Y-22360000D02*
X14607836Y-22360000D01*
%TO.C,C23*%
X2392164Y-6640000D02*
X2607836Y-6640000D01*
X2392164Y-7360000D02*
X2607836Y-7360000D01*
%TO.C,C14*%
X17392164Y-6640000D02*
X17607836Y-6640000D01*
X17392164Y-7360000D02*
X17607836Y-7360000D01*
%TO.C,C47*%
X11392164Y-15640000D02*
X11607836Y-15640000D01*
X11392164Y-16360000D02*
X11607836Y-16360000D01*
%TO.C,C33*%
X17392164Y-15640000D02*
X17607836Y-15640000D01*
X17392164Y-16360000D02*
X17607836Y-16360000D01*
%TO.C,C131*%
X20392164Y-24640000D02*
X20607836Y-24640000D01*
X20392164Y-25360000D02*
X20607836Y-25360000D01*
%TO.C,C60*%
X32392164Y-15640000D02*
X32607836Y-15640000D01*
X32392164Y-16360000D02*
X32607836Y-16360000D01*
%TO.C,C138*%
X47392164Y-24640000D02*
X47607836Y-24640000D01*
X47392164Y-25360000D02*
X47607836Y-25360000D01*
%TO.C,C27*%
X35392164Y-18640000D02*
X35607836Y-18640000D01*
X35392164Y-19360000D02*
X35607836Y-19360000D01*
%TO.C,C119*%
X38392164Y-9640000D02*
X38607836Y-9640000D01*
X38392164Y-10360000D02*
X38607836Y-10360000D01*
%TO.C,C56*%
X17392164Y-9640000D02*
X17607836Y-9640000D01*
X17392164Y-10360000D02*
X17607836Y-10360000D01*
%TO.C,C127*%
X23392164Y-6640000D02*
X23607836Y-6640000D01*
X23392164Y-7360000D02*
X23607836Y-7360000D01*
%TO.C,C21*%
X5392164Y-6640000D02*
X5607836Y-6640000D01*
X5392164Y-7360000D02*
X5607836Y-7360000D01*
%TO.C,C134*%
X41392164Y-3640000D02*
X41607836Y-3640000D01*
X41392164Y-4360000D02*
X41607836Y-4360000D01*
%TO.C,C130*%
X23392164Y-24640000D02*
X23607836Y-24640000D01*
X23392164Y-25360000D02*
X23607836Y-25360000D01*
%TO.C,C79*%
X35392164Y-12640000D02*
X35607836Y-12640000D01*
X35392164Y-13360000D02*
X35607836Y-13360000D01*
%TO.C,C17*%
X11392164Y-6640000D02*
X11607836Y-6640000D01*
X11392164Y-7360000D02*
X11607836Y-7360000D01*
%TO.C,C77*%
X29392164Y-15640000D02*
X29607836Y-15640000D01*
X29392164Y-16360000D02*
X29607836Y-16360000D01*
%TO.C,C74*%
X47392164Y-12640000D02*
X47607836Y-12640000D01*
X47392164Y-13360000D02*
X47607836Y-13360000D01*
%TO.C,C50*%
X5392164Y-18640000D02*
X5607836Y-18640000D01*
X5392164Y-19360000D02*
X5607836Y-19360000D01*
%TO.C,C59*%
X26392164Y-9640000D02*
X26607836Y-9640000D01*
X26392164Y-10360000D02*
X26607836Y-10360000D01*
%TO.C,C54*%
X26392164Y-3640000D02*
X26607836Y-3640000D01*
X26392164Y-4360000D02*
X26607836Y-4360000D01*
%TO.C,C98*%
X5392164Y-15640000D02*
X5607836Y-15640000D01*
X5392164Y-16360000D02*
X5607836Y-16360000D01*
%TO.C,C125*%
X32392164Y-24640000D02*
X32607836Y-24640000D01*
X32392164Y-25360000D02*
X32607836Y-25360000D01*
%TO.C,C83*%
X17392164Y-18640000D02*
X17607836Y-18640000D01*
X17392164Y-19360000D02*
X17607836Y-19360000D01*
%TO.C,C18*%
X8392164Y-6640000D02*
X8607836Y-6640000D01*
X8392164Y-7360000D02*
X8607836Y-7360000D01*
%TO.C,C90*%
X47392164Y-15640000D02*
X47607836Y-15640000D01*
X47392164Y-16360000D02*
X47607836Y-16360000D01*
%TO.C,C41*%
X2412164Y-21640000D02*
X2627836Y-21640000D01*
X2412164Y-22360000D02*
X2627836Y-22360000D01*
%TO.C,C108*%
X44392164Y-21640000D02*
X44607836Y-21640000D01*
X44392164Y-22360000D02*
X44607836Y-22360000D01*
%TO.C,C105*%
X11392164Y-24640000D02*
X11607836Y-24640000D01*
X11392164Y-25360000D02*
X11607836Y-25360000D01*
%TO.C,C24*%
X5392164Y-3640000D02*
X5607836Y-3640000D01*
X5392164Y-4360000D02*
X5607836Y-4360000D01*
%TO.C,BT1*%
X12595000Y-80840000D02*
X12595000Y-27640000D01*
X12600000Y-27640000D02*
X37400000Y-27640000D01*
X13570000Y-29070000D02*
X13570000Y-31610000D01*
X13570000Y-31610000D02*
X14840000Y-31610000D01*
X13570000Y-44310000D02*
X14840000Y-44310000D01*
X13570000Y-64170000D02*
X13570000Y-44310000D01*
X13570000Y-76870000D02*
X14840000Y-76870000D01*
X13570000Y-79410000D02*
X13570000Y-76870000D01*
X14840000Y-31610000D02*
X14840000Y-44310000D01*
X14840000Y-64170000D02*
X13570000Y-64170000D01*
X14840000Y-76870000D02*
X14840000Y-64170000D01*
X16110000Y-45580000D02*
X16110000Y-64170000D01*
X16110000Y-64170000D02*
X21190000Y-64170000D01*
X17380000Y-44310000D02*
X17380000Y-45580000D01*
X17380000Y-45580000D02*
X16110000Y-45580000D01*
X19920000Y-44310000D02*
X17380000Y-44310000D01*
X19920000Y-45580000D02*
X19920000Y-44310000D01*
X21190000Y-45580000D02*
X19920000Y-45580000D01*
X21190000Y-64170000D02*
X21190000Y-45580000D01*
X24650000Y-49390000D02*
X24650000Y-29070000D01*
X24650000Y-56550000D02*
X24650000Y-79410000D01*
X25350000Y-29070000D02*
X25350000Y-49390000D01*
X25350000Y-49390000D02*
X24650000Y-49390000D01*
X25350000Y-56550000D02*
X24650000Y-56550000D01*
X25350000Y-79410000D02*
X25350000Y-56550000D01*
X28810000Y-44310000D02*
X28810000Y-62900000D01*
X28810000Y-62900000D02*
X30080000Y-62900000D01*
X30080000Y-62900000D02*
X30080000Y-64170000D01*
X30080000Y-64170000D02*
X32620000Y-64170000D01*
X32620000Y-62900000D02*
X33890000Y-62900000D01*
X32620000Y-64170000D02*
X32620000Y-62900000D01*
X33890000Y-44310000D02*
X28810000Y-44310000D01*
X33890000Y-62900000D02*
X33890000Y-44310000D01*
X35160000Y-31610000D02*
X35160000Y-44310000D01*
X35160000Y-44310000D02*
X36430000Y-44310000D01*
X35160000Y-76870000D02*
X35160000Y-64170000D01*
X35160000Y-76870000D02*
X36430000Y-76870000D01*
X36430000Y-29070000D02*
X13570000Y-29070000D01*
X36430000Y-29070000D02*
X36430000Y-31610000D01*
X36430000Y-31610000D02*
X35160000Y-31610000D01*
X36430000Y-44310000D02*
X36430000Y-64170000D01*
X36430000Y-64170000D02*
X35160000Y-64170000D01*
X36430000Y-76870000D02*
X36430000Y-79410000D01*
X36430000Y-79410000D02*
X13570000Y-79410000D01*
X37400000Y-80840000D02*
X12600000Y-80840000D01*
X37405000Y-27640000D02*
X37405000Y-80840000D01*
%TO.C,C55*%
X32392164Y-6640000D02*
X32607836Y-6640000D01*
X32392164Y-7360000D02*
X32607836Y-7360000D01*
%TO.C,C32*%
X8392164Y-12640000D02*
X8607836Y-12640000D01*
X8392164Y-13360000D02*
X8607836Y-13360000D01*
%TO.C,C67*%
X26392164Y-18640000D02*
X26607836Y-18640000D01*
X26392164Y-19360000D02*
X26607836Y-19360000D01*
%TO.C,C51*%
X8392164Y-18640000D02*
X8607836Y-18640000D01*
X8392164Y-19360000D02*
X8607836Y-19360000D01*
%TO.C,C120*%
X32392164Y-9640000D02*
X32607836Y-9640000D01*
X32392164Y-10360000D02*
X32607836Y-10360000D01*
%TO.C,C107*%
X44392164Y-24640000D02*
X44607836Y-24640000D01*
X44392164Y-25360000D02*
X44607836Y-25360000D01*
%TO.C,C39*%
X29392164Y-6640000D02*
X29607836Y-6640000D01*
X29392164Y-7360000D02*
X29607836Y-7360000D01*
%TO.C,C12*%
X20392164Y-6640000D02*
X20607836Y-6640000D01*
X20392164Y-7360000D02*
X20607836Y-7360000D01*
%TO.C,C57*%
X2392164Y-24640000D02*
X2607836Y-24640000D01*
X2392164Y-25360000D02*
X2607836Y-25360000D01*
%TO.C,C123*%
X38392164Y-24640000D02*
X38607836Y-24640000D01*
X38392164Y-25360000D02*
X38607836Y-25360000D01*
%TO.C,C34*%
X41392164Y-21640000D02*
X41607836Y-21640000D01*
X41392164Y-22360000D02*
X41607836Y-22360000D01*
%TO.C,C97*%
X35392164Y-15640000D02*
X35607836Y-15640000D01*
X35392164Y-16360000D02*
X35607836Y-16360000D01*
%TO.C,C121*%
X14392164Y-24640000D02*
X14607836Y-24640000D01*
X14392164Y-25360000D02*
X14607836Y-25360000D01*
%TO.C,C38*%
X26392164Y-6640000D02*
X26607836Y-6640000D01*
X26392164Y-7360000D02*
X26607836Y-7360000D01*
%TO.C,C76*%
X26392164Y-15640000D02*
X26607836Y-15640000D01*
X26392164Y-16360000D02*
X26607836Y-16360000D01*
%TO.C,C101*%
X32392164Y-21640000D02*
X32607836Y-21640000D01*
X32392164Y-22360000D02*
X32607836Y-22360000D01*
%TO.C,C85*%
X29392164Y-21640000D02*
X29607836Y-21640000D01*
X29392164Y-22360000D02*
X29607836Y-22360000D01*
%TO.C,C68*%
X14392164Y-18640000D02*
X14607836Y-18640000D01*
X14392164Y-19360000D02*
X14607836Y-19360000D01*
%TO.C,C94*%
X44392164Y-3640000D02*
X44607836Y-3640000D01*
X44392164Y-4360000D02*
X44607836Y-4360000D01*
%TO.C,C110*%
X44392164Y-15640000D02*
X44607836Y-15640000D01*
X44392164Y-16360000D02*
X44607836Y-16360000D01*
%TO.C,C80*%
X38392164Y-15640000D02*
X38607836Y-15640000D01*
X38392164Y-16360000D02*
X38607836Y-16360000D01*
%TO.C,C62*%
X17392164Y-12640000D02*
X17607836Y-12640000D01*
X17392164Y-13360000D02*
X17607836Y-13360000D01*
%TO.C,C37*%
X5392164Y-21640000D02*
X5607836Y-21640000D01*
X5392164Y-22360000D02*
X5607836Y-22360000D01*
%TO.C,C137*%
X17392164Y-24640000D02*
X17607836Y-24640000D01*
X17392164Y-25360000D02*
X17607836Y-25360000D01*
%TO.C,C25*%
X2392164Y-3640000D02*
X2607836Y-3640000D01*
X2392164Y-4360000D02*
X2607836Y-4360000D01*
%TO.C,J1*%
X2410000Y-49240000D02*
X3685000Y-49240000D01*
X3685000Y-40195000D02*
X7315000Y-40195000D01*
X3685000Y-40260000D02*
X3685000Y-40195000D01*
X3685000Y-49305000D02*
X3685000Y-49240000D01*
X3685000Y-49305000D02*
X7315000Y-49305000D01*
X7315000Y-40260000D02*
X7315000Y-40195000D01*
X7315000Y-49305000D02*
X7315000Y-49240000D01*
%TO.C,C19*%
X14392164Y-3640000D02*
X14607836Y-3640000D01*
X14392164Y-4360000D02*
X14607836Y-4360000D01*
%TO.C,C42*%
X47392164Y-6640000D02*
X47607836Y-6640000D01*
X47392164Y-7360000D02*
X47607836Y-7360000D01*
%TO.C,C26*%
X47392164Y-3640000D02*
X47607836Y-3640000D01*
X47392164Y-4360000D02*
X47607836Y-4360000D01*
%TO.C,C30*%
X2392164Y-9640000D02*
X2607836Y-9640000D01*
X2392164Y-10360000D02*
X2607836Y-10360000D01*
%TO.C,C64*%
X14392164Y-12640000D02*
X14607836Y-12640000D01*
X14392164Y-13360000D02*
X14607836Y-13360000D01*
%TO.C,C100*%
X17392164Y-21640000D02*
X17607836Y-21640000D01*
X17392164Y-22360000D02*
X17607836Y-22360000D01*
%TO.C,C122*%
X47392164Y-21640000D02*
X47607836Y-21640000D01*
X47392164Y-22360000D02*
X47607836Y-22360000D01*
%TO.C,C89*%
X8392164Y-24640000D02*
X8607836Y-24640000D01*
X8392164Y-25360000D02*
X8607836Y-25360000D01*
%TO.C,C52*%
X11392164Y-18640000D02*
X11607836Y-18640000D01*
X11392164Y-19360000D02*
X11607836Y-19360000D01*
%TO.C,C114*%
X23392164Y-18640000D02*
X23607836Y-18640000D01*
X23392164Y-19360000D02*
X23607836Y-19360000D01*
%TO.C,C73*%
X5392164Y-24640000D02*
X5607836Y-24640000D01*
X5392164Y-25360000D02*
X5607836Y-25360000D01*
%TO.C,C128*%
X41392164Y-24640000D02*
X41607836Y-24640000D01*
X41392164Y-25360000D02*
X41607836Y-25360000D01*
%TO.C,C22*%
X8392164Y-3640000D02*
X8607836Y-3640000D01*
X8392164Y-4360000D02*
X8607836Y-4360000D01*
%TO.C,C109*%
X44392164Y-18640000D02*
X44607836Y-18640000D01*
X44392164Y-19360000D02*
X44607836Y-19360000D01*
%TO.C,C44*%
X29392164Y-18640000D02*
X29607836Y-18640000D01*
X29392164Y-19360000D02*
X29607836Y-19360000D01*
%TO.C,C126*%
X29392164Y-24640000D02*
X29607836Y-24640000D01*
X29392164Y-25360000D02*
X29607836Y-25360000D01*
%TO.C,C103*%
X41392164Y-6640000D02*
X41607836Y-6640000D01*
X41392164Y-7360000D02*
X41607836Y-7360000D01*
%TO.C,C61*%
X5392164Y-12640000D02*
X5607836Y-12640000D01*
X5392164Y-13360000D02*
X5607836Y-13360000D01*
%TO.C,C88*%
X23392164Y-9640000D02*
X23607836Y-9640000D01*
X23392164Y-10360000D02*
X23607836Y-10360000D01*
%TO.C,C28*%
X38392164Y-12640000D02*
X38607836Y-12640000D01*
X38392164Y-13360000D02*
X38607836Y-13360000D01*
%TO.C,C112*%
X44392164Y-6640000D02*
X44607836Y-6640000D01*
X44392164Y-7360000D02*
X44607836Y-7360000D01*
%TO.C,C35*%
X11392164Y-21640000D02*
X11607836Y-21640000D01*
X11392164Y-22360000D02*
X11607836Y-22360000D01*
%TO.C,C69*%
X26392164Y-21640000D02*
X26607836Y-21640000D01*
X26392164Y-22360000D02*
X26607836Y-22360000D01*
%TO.C,C78*%
X32392164Y-12640000D02*
X32607836Y-12640000D01*
X32392164Y-13360000D02*
X32607836Y-13360000D01*
%TO.C,C31*%
X14392164Y-15640000D02*
X14607836Y-15640000D01*
X14392164Y-16360000D02*
X14607836Y-16360000D01*
%TO.C,C72*%
X20392164Y-9640000D02*
X20607836Y-9640000D01*
X20392164Y-10360000D02*
X20607836Y-10360000D01*
%TO.C,C86*%
X32392164Y-3640000D02*
X32607836Y-3640000D01*
X32392164Y-4360000D02*
X32607836Y-4360000D01*
%TO.C,C136*%
X35392164Y-9640000D02*
X35607836Y-9640000D01*
X35392164Y-10360000D02*
X35607836Y-10360000D01*
%TO.C,C133*%
X38392164Y-21640000D02*
X38607836Y-21640000D01*
X38392164Y-22360000D02*
X38607836Y-22360000D01*
%TO.C,C63*%
X8392164Y-15640000D02*
X8607836Y-15640000D01*
X8392164Y-16360000D02*
X8607836Y-16360000D01*
%TO.C,C75*%
X26392164Y-12640000D02*
X26607836Y-12640000D01*
X26392164Y-13360000D02*
X26607836Y-13360000D01*
%TO.C,C116*%
X20392164Y-21640000D02*
X20607836Y-21640000D01*
X20392164Y-22360000D02*
X20607836Y-22360000D01*
%TO.C,C132*%
X23392164Y-21640000D02*
X23607836Y-21640000D01*
X23392164Y-22360000D02*
X23607836Y-22360000D01*
%TO.C,C135*%
X41392164Y-9640000D02*
X41607836Y-9640000D01*
X41392164Y-10360000D02*
X41607836Y-10360000D01*
%TO.C,C104*%
X29392164Y-9640000D02*
X29607836Y-9640000D01*
X29392164Y-10360000D02*
X29607836Y-10360000D01*
%TO.C,C45*%
X8392164Y-9640000D02*
X8607836Y-9640000D01*
X8392164Y-10360000D02*
X8607836Y-10360000D01*
%TO.C,C82*%
X2392164Y-15640000D02*
X2607836Y-15640000D01*
X2392164Y-16360000D02*
X2607836Y-16360000D01*
%TO.C,C29*%
X5392164Y-9640000D02*
X5607836Y-9640000D01*
X5392164Y-10360000D02*
X5607836Y-10360000D01*
%TO.C,C58*%
X47392164Y-9640000D02*
X47607836Y-9640000D01*
X47392164Y-10360000D02*
X47607836Y-10360000D01*
%TO.C,C92*%
X23392164Y-15640000D02*
X23607836Y-15640000D01*
X23392164Y-16360000D02*
X23607836Y-16360000D01*
%TO.C,C11*%
X23392164Y-3640000D02*
X23607836Y-3640000D01*
X23392164Y-4360000D02*
X23607836Y-4360000D01*
%TO.C,C113*%
X41392164Y-12640000D02*
X41607836Y-12640000D01*
X41392164Y-13360000D02*
X41607836Y-13360000D01*
%TO.C,C71*%
X35392164Y-6640000D02*
X35607836Y-6640000D01*
X35392164Y-7360000D02*
X35607836Y-7360000D01*
%TO.C,C91*%
X23392164Y-12640000D02*
X23607836Y-12640000D01*
X23392164Y-13360000D02*
X23607836Y-13360000D01*
%TO.C,C49*%
X20392164Y-15640000D02*
X20607836Y-15640000D01*
X20392164Y-16360000D02*
X20607836Y-16360000D01*
%TO.C,C43*%
X32392164Y-18640000D02*
X32607836Y-18640000D01*
X32392164Y-19360000D02*
X32607836Y-19360000D01*
%TO.C,C111*%
X44392164Y-9640000D02*
X44607836Y-9640000D01*
X44392164Y-10360000D02*
X44607836Y-10360000D01*
%TD*%
%LPC*%
D12*
%TO.C,SW1*%
X5500000Y-79900000D03*
X8500000Y-79900000D03*
%TD*%
D13*
%TO.C,C96*%
X29020000Y-13000000D03*
X29980000Y-13000000D03*
%TD*%
%TO.C,C48*%
X11020000Y-13000000D03*
X11980000Y-13000000D03*
%TD*%
%TO.C,C118*%
X38020000Y-4000000D03*
X38980000Y-4000000D03*
%TD*%
%TO.C,C81*%
X41020000Y-16000000D03*
X41980000Y-16000000D03*
%TD*%
%TO.C,C16*%
X14020000Y-7000000D03*
X14980000Y-7000000D03*
%TD*%
%TO.C,C117*%
X35020000Y-22000000D03*
X35980000Y-22000000D03*
%TD*%
%TO.C,C40*%
X14020000Y-10000000D03*
X14980000Y-10000000D03*
%TD*%
%TO.C,C99*%
X20020000Y-19000000D03*
X20980000Y-19000000D03*
%TD*%
%TO.C,C84*%
X41020000Y-19000000D03*
X41980000Y-19000000D03*
%TD*%
%TO.C,C20*%
X11020000Y-4000000D03*
X11980000Y-4000000D03*
%TD*%
%TO.C,C70*%
X29020000Y-4000000D03*
X29980000Y-4000000D03*
%TD*%
%TO.C,C15*%
X17020000Y-4000000D03*
X17980000Y-4000000D03*
%TD*%
%TO.C,C87*%
X38020000Y-7000000D03*
X38980000Y-7000000D03*
%TD*%
%TO.C,C36*%
X8020000Y-22000000D03*
X8980000Y-22000000D03*
%TD*%
%TO.C,C129*%
X26020000Y-25000000D03*
X26980000Y-25000000D03*
%TD*%
%TO.C,C93*%
X44020000Y-13000000D03*
X44980000Y-13000000D03*
%TD*%
%TO.C,C115*%
X38020000Y-19000000D03*
X38980000Y-19000000D03*
%TD*%
%TO.C,C124*%
X35020000Y-25000000D03*
X35980000Y-25000000D03*
%TD*%
%TO.C,C46*%
X2020000Y-13000000D03*
X2980000Y-13000000D03*
%TD*%
%TO.C,C65*%
X20020000Y-13000000D03*
X20980000Y-13000000D03*
%TD*%
%TO.C,C66*%
X2020000Y-19000000D03*
X2980000Y-19000000D03*
%TD*%
%TO.C,C106*%
X47020000Y-19000000D03*
X47980000Y-19000000D03*
%TD*%
%TO.C,C102*%
X35020000Y-4000000D03*
X35980000Y-4000000D03*
%TD*%
%TO.C,C13*%
X20020000Y-4000000D03*
X20980000Y-4000000D03*
%TD*%
%TO.C,C95*%
X11020000Y-10000000D03*
X11980000Y-10000000D03*
%TD*%
%TO.C,C53*%
X14020000Y-22000000D03*
X14980000Y-22000000D03*
%TD*%
%TO.C,C23*%
X2020000Y-7000000D03*
X2980000Y-7000000D03*
%TD*%
%TO.C,C14*%
X17020000Y-7000000D03*
X17980000Y-7000000D03*
%TD*%
%TO.C,C47*%
X11020000Y-16000000D03*
X11980000Y-16000000D03*
%TD*%
%TO.C,C33*%
X17020000Y-16000000D03*
X17980000Y-16000000D03*
%TD*%
%TO.C,C131*%
X20020000Y-25000000D03*
X20980000Y-25000000D03*
%TD*%
%TO.C,C60*%
X32020000Y-16000000D03*
X32980000Y-16000000D03*
%TD*%
%TO.C,C138*%
X47020000Y-25000000D03*
X47980000Y-25000000D03*
%TD*%
%TO.C,C27*%
X35020000Y-19000000D03*
X35980000Y-19000000D03*
%TD*%
%TO.C,C119*%
X38020000Y-10000000D03*
X38980000Y-10000000D03*
%TD*%
%TO.C,C56*%
X17020000Y-10000000D03*
X17980000Y-10000000D03*
%TD*%
%TO.C,C127*%
X23020000Y-7000000D03*
X23980000Y-7000000D03*
%TD*%
%TO.C,C21*%
X5020000Y-7000000D03*
X5980000Y-7000000D03*
%TD*%
%TO.C,C134*%
X41020000Y-4000000D03*
X41980000Y-4000000D03*
%TD*%
%TO.C,C130*%
X23020000Y-25000000D03*
X23980000Y-25000000D03*
%TD*%
%TO.C,C79*%
X35020000Y-13000000D03*
X35980000Y-13000000D03*
%TD*%
%TO.C,C17*%
X11020000Y-7000000D03*
X11980000Y-7000000D03*
%TD*%
%TO.C,C77*%
X29020000Y-16000000D03*
X29980000Y-16000000D03*
%TD*%
%TO.C,C74*%
X47020000Y-13000000D03*
X47980000Y-13000000D03*
%TD*%
%TO.C,C50*%
X5020000Y-19000000D03*
X5980000Y-19000000D03*
%TD*%
%TO.C,C59*%
X26020000Y-10000000D03*
X26980000Y-10000000D03*
%TD*%
%TO.C,C54*%
X26020000Y-4000000D03*
X26980000Y-4000000D03*
%TD*%
%TO.C,C98*%
X5020000Y-16000000D03*
X5980000Y-16000000D03*
%TD*%
%TO.C,C125*%
X32020000Y-25000000D03*
X32980000Y-25000000D03*
%TD*%
%TO.C,C83*%
X17020000Y-19000000D03*
X17980000Y-19000000D03*
%TD*%
%TO.C,C18*%
X8020000Y-7000000D03*
X8980000Y-7000000D03*
%TD*%
%TO.C,C90*%
X47020000Y-16000000D03*
X47980000Y-16000000D03*
%TD*%
%TO.C,C41*%
X2040000Y-22000000D03*
X3000000Y-22000000D03*
%TD*%
%TO.C,C108*%
X44020000Y-22000000D03*
X44980000Y-22000000D03*
%TD*%
%TO.C,C105*%
X11020000Y-25000000D03*
X11980000Y-25000000D03*
%TD*%
%TO.C,C24*%
X5020000Y-4000000D03*
X5980000Y-4000000D03*
%TD*%
D14*
%TO.C,BT1*%
X31350000Y-78140000D03*
D15*
X18650000Y-78140000D03*
%TD*%
D13*
%TO.C,C55*%
X32020000Y-7000000D03*
X32980000Y-7000000D03*
%TD*%
%TO.C,C32*%
X8020000Y-13000000D03*
X8980000Y-13000000D03*
%TD*%
%TO.C,C67*%
X26020000Y-19000000D03*
X26980000Y-19000000D03*
%TD*%
%TO.C,C51*%
X8020000Y-19000000D03*
X8980000Y-19000000D03*
%TD*%
%TO.C,C120*%
X32020000Y-10000000D03*
X32980000Y-10000000D03*
%TD*%
%TO.C,C107*%
X44020000Y-25000000D03*
X44980000Y-25000000D03*
%TD*%
%TO.C,C39*%
X29020000Y-7000000D03*
X29980000Y-7000000D03*
%TD*%
%TO.C,C12*%
X20020000Y-7000000D03*
X20980000Y-7000000D03*
%TD*%
%TO.C,C57*%
X2020000Y-25000000D03*
X2980000Y-25000000D03*
%TD*%
%TO.C,C123*%
X38020000Y-25000000D03*
X38980000Y-25000000D03*
%TD*%
%TO.C,C34*%
X41020000Y-22000000D03*
X41980000Y-22000000D03*
%TD*%
%TO.C,C97*%
X35020000Y-16000000D03*
X35980000Y-16000000D03*
%TD*%
%TO.C,C121*%
X14020000Y-25000000D03*
X14980000Y-25000000D03*
%TD*%
%TO.C,C38*%
X26020000Y-7000000D03*
X26980000Y-7000000D03*
%TD*%
%TO.C,C76*%
X26020000Y-16000000D03*
X26980000Y-16000000D03*
%TD*%
%TO.C,C101*%
X32020000Y-22000000D03*
X32980000Y-22000000D03*
%TD*%
%TO.C,C85*%
X29020000Y-22000000D03*
X29980000Y-22000000D03*
%TD*%
%TO.C,C68*%
X14020000Y-19000000D03*
X14980000Y-19000000D03*
%TD*%
%TO.C,C94*%
X44020000Y-4000000D03*
X44980000Y-4000000D03*
%TD*%
%TO.C,C110*%
X44020000Y-16000000D03*
X44980000Y-16000000D03*
%TD*%
%TO.C,C80*%
X38020000Y-16000000D03*
X38980000Y-16000000D03*
%TD*%
%TO.C,C62*%
X17020000Y-13000000D03*
X17980000Y-13000000D03*
%TD*%
%TO.C,C37*%
X5020000Y-22000000D03*
X5980000Y-22000000D03*
%TD*%
%TO.C,C137*%
X17020000Y-25000000D03*
X17980000Y-25000000D03*
%TD*%
%TO.C,C25*%
X2020000Y-4000000D03*
X2980000Y-4000000D03*
%TD*%
D16*
%TO.C,J1*%
X3550000Y-48560000D03*
X7450000Y-48560000D03*
X3550000Y-47290000D03*
X7450000Y-47290000D03*
X3550000Y-46020000D03*
X7450000Y-46020000D03*
X3550000Y-44750000D03*
X7450000Y-44750000D03*
X3550000Y-43480000D03*
X7450000Y-43480000D03*
X3550000Y-42210000D03*
X7450000Y-42210000D03*
X3550000Y-40940000D03*
X7450000Y-40940000D03*
%TD*%
D13*
%TO.C,C19*%
X14020000Y-4000000D03*
X14980000Y-4000000D03*
%TD*%
%TO.C,C42*%
X47020000Y-7000000D03*
X47980000Y-7000000D03*
%TD*%
%TO.C,C26*%
X47020000Y-4000000D03*
X47980000Y-4000000D03*
%TD*%
%TO.C,C30*%
X2020000Y-10000000D03*
X2980000Y-10000000D03*
%TD*%
%TO.C,C64*%
X14020000Y-13000000D03*
X14980000Y-13000000D03*
%TD*%
%TO.C,C100*%
X17020000Y-22000000D03*
X17980000Y-22000000D03*
%TD*%
%TO.C,C122*%
X47020000Y-22000000D03*
X47980000Y-22000000D03*
%TD*%
%TO.C,C89*%
X8020000Y-25000000D03*
X8980000Y-25000000D03*
%TD*%
%TO.C,C52*%
X11020000Y-19000000D03*
X11980000Y-19000000D03*
%TD*%
%TO.C,C114*%
X23020000Y-19000000D03*
X23980000Y-19000000D03*
%TD*%
%TO.C,C73*%
X5020000Y-25000000D03*
X5980000Y-25000000D03*
%TD*%
%TO.C,C128*%
X41020000Y-25000000D03*
X41980000Y-25000000D03*
%TD*%
%TO.C,C22*%
X8020000Y-4000000D03*
X8980000Y-4000000D03*
%TD*%
%TO.C,C109*%
X44020000Y-19000000D03*
X44980000Y-19000000D03*
%TD*%
%TO.C,C44*%
X29020000Y-19000000D03*
X29980000Y-19000000D03*
%TD*%
%TO.C,C126*%
X29020000Y-25000000D03*
X29980000Y-25000000D03*
%TD*%
%TO.C,C103*%
X41020000Y-7000000D03*
X41980000Y-7000000D03*
%TD*%
%TO.C,C61*%
X5020000Y-13000000D03*
X5980000Y-13000000D03*
%TD*%
%TO.C,C88*%
X23020000Y-10000000D03*
X23980000Y-10000000D03*
%TD*%
%TO.C,C28*%
X38020000Y-13000000D03*
X38980000Y-13000000D03*
%TD*%
%TO.C,C112*%
X44020000Y-7000000D03*
X44980000Y-7000000D03*
%TD*%
%TO.C,C35*%
X11020000Y-22000000D03*
X11980000Y-22000000D03*
%TD*%
%TO.C,C69*%
X26020000Y-22000000D03*
X26980000Y-22000000D03*
%TD*%
%TO.C,C78*%
X32020000Y-13000000D03*
X32980000Y-13000000D03*
%TD*%
%TO.C,C31*%
X14020000Y-16000000D03*
X14980000Y-16000000D03*
%TD*%
%TO.C,C72*%
X20020000Y-10000000D03*
X20980000Y-10000000D03*
%TD*%
%TO.C,C86*%
X32020000Y-4000000D03*
X32980000Y-4000000D03*
%TD*%
%TO.C,C136*%
X35020000Y-10000000D03*
X35980000Y-10000000D03*
%TD*%
%TO.C,C133*%
X38020000Y-22000000D03*
X38980000Y-22000000D03*
%TD*%
%TO.C,C63*%
X8020000Y-16000000D03*
X8980000Y-16000000D03*
%TD*%
%TO.C,C75*%
X26020000Y-13000000D03*
X26980000Y-13000000D03*
%TD*%
%TO.C,C116*%
X20020000Y-22000000D03*
X20980000Y-22000000D03*
%TD*%
%TO.C,C132*%
X23020000Y-22000000D03*
X23980000Y-22000000D03*
%TD*%
%TO.C,C135*%
X41020000Y-10000000D03*
X41980000Y-10000000D03*
%TD*%
%TO.C,C104*%
X29020000Y-10000000D03*
X29980000Y-10000000D03*
%TD*%
%TO.C,C45*%
X8020000Y-10000000D03*
X8980000Y-10000000D03*
%TD*%
%TO.C,C82*%
X2020000Y-16000000D03*
X2980000Y-16000000D03*
%TD*%
%TO.C,C29*%
X5020000Y-10000000D03*
X5980000Y-10000000D03*
%TD*%
%TO.C,C58*%
X47020000Y-10000000D03*
X47980000Y-10000000D03*
%TD*%
%TO.C,C92*%
X23020000Y-16000000D03*
X23980000Y-16000000D03*
%TD*%
%TO.C,C11*%
X23020000Y-4000000D03*
X23980000Y-4000000D03*
%TD*%
%TO.C,C113*%
X41020000Y-13000000D03*
X41980000Y-13000000D03*
%TD*%
%TO.C,C71*%
X35020000Y-7000000D03*
X35980000Y-7000000D03*
%TD*%
%TO.C,C91*%
X23020000Y-13000000D03*
X23980000Y-13000000D03*
%TD*%
%TO.C,C49*%
X20020000Y-16000000D03*
X20980000Y-16000000D03*
%TD*%
%TO.C,C43*%
X32020000Y-19000000D03*
X32980000Y-19000000D03*
%TD*%
%TO.C,C111*%
X44020000Y-10000000D03*
X44980000Y-10000000D03*
%TD*%
%LPD*%
M02*
