%TF.GenerationSoftware,KiCad,Pcbnew,10.0.1*%
%TF.CreationDate,2026-07-12T20:40:28+10:00*%
%TF.ProjectId,business card,62757369-6e65-4737-9320-636172642e6b,rev?*%
%TF.SameCoordinates,Original*%
%TF.FileFunction,Soldermask,Bot*%
%TF.FilePolarity,Negative*%
%FSLAX46Y46*%
G04 Gerber Fmt 4.6, Leading zero omitted, Abs format (unit mm)*
G04 Created by KiCad (PCBNEW 10.0.1) date 2026-07-12 20:40:28*
%MOMM*%
%LPD*%
G01*
G04 APERTURE LIST*
G04 Aperture macros list*
%AMRoundRect*
0 Rectangle with rounded corners*
0 $1 Rounding radius*
0 $2 $3 $4 $5 $6 $7 $8 $9 X,Y pos of 4 corners*
0 Add a 4 corners polygon primitive as box body*
4,1,4,$2,$3,$4,$5,$6,$7,$8,$9,$2,$3,0*
0 Add four circle primitives for the rounded corners*
1,1,$1+$1,$2,$3*
1,1,$1+$1,$4,$5*
1,1,$1+$1,$6,$7*
1,1,$1+$1,$8,$9*
0 Add four rect primitives between the rounded corners*
20,1,$1+$1,$2,$3,$4,$5,0*
20,1,$1+$1,$4,$5,$6,$7,0*
20,1,$1+$1,$6,$7,$8,$9,0*
20,1,$1+$1,$8,$9,$2,$3,0*%
G04 Aperture macros list end*
%ADD10C,0.900000*%
%ADD11RoundRect,0.140000X-0.140000X-0.170000X0.140000X-0.170000X0.140000X0.170000X-0.140000X0.170000X0*%
%ADD12R,2.000000X2.000000*%
%ADD13C,2.000000*%
%ADD14R,2.400000X0.740000*%
G04 APERTURE END LIST*
D10*
%TO.C,SW1*%
X5500000Y-79900000D03*
X8500000Y-79900000D03*
%TD*%
D11*
%TO.C,C96*%
X29020000Y-13000000D03*
X29980000Y-13000000D03*
%TD*%
%TO.C,C48*%
X11020000Y-13000000D03*
X11980000Y-13000000D03*
%TD*%
%TO.C,C118*%
X38020000Y-4000000D03*
X38980000Y-4000000D03*
%TD*%
%TO.C,C81*%
X41020000Y-16000000D03*
X41980000Y-16000000D03*
%TD*%
%TO.C,C16*%
X14020000Y-7000000D03*
X14980000Y-7000000D03*
%TD*%
%TO.C,C117*%
X35020000Y-22000000D03*
X35980000Y-22000000D03*
%TD*%
%TO.C,C40*%
X14020000Y-10000000D03*
X14980000Y-10000000D03*
%TD*%
%TO.C,C99*%
X20020000Y-19000000D03*
X20980000Y-19000000D03*
%TD*%
%TO.C,C84*%
X41020000Y-19000000D03*
X41980000Y-19000000D03*
%TD*%
%TO.C,C20*%
X11020000Y-4000000D03*
X11980000Y-4000000D03*
%TD*%
%TO.C,C70*%
X29020000Y-4000000D03*
X29980000Y-4000000D03*
%TD*%
%TO.C,C15*%
X17020000Y-4000000D03*
X17980000Y-4000000D03*
%TD*%
%TO.C,C87*%
X38020000Y-7000000D03*
X38980000Y-7000000D03*
%TD*%
%TO.C,C36*%
X8020000Y-22000000D03*
X8980000Y-22000000D03*
%TD*%
%TO.C,C129*%
X26020000Y-25000000D03*
X26980000Y-25000000D03*
%TD*%
%TO.C,C93*%
X44020000Y-13000000D03*
X44980000Y-13000000D03*
%TD*%
%TO.C,C115*%
X38020000Y-19000000D03*
X38980000Y-19000000D03*
%TD*%
%TO.C,C124*%
X35020000Y-25000000D03*
X35980000Y-25000000D03*
%TD*%
%TO.C,C46*%
X2020000Y-13000000D03*
X2980000Y-13000000D03*
%TD*%
%TO.C,C65*%
X20020000Y-13000000D03*
X20980000Y-13000000D03*
%TD*%
%TO.C,C66*%
X2020000Y-19000000D03*
X2980000Y-19000000D03*
%TD*%
%TO.C,C106*%
X47020000Y-19000000D03*
X47980000Y-19000000D03*
%TD*%
%TO.C,C102*%
X35020000Y-4000000D03*
X35980000Y-4000000D03*
%TD*%
%TO.C,C13*%
X20020000Y-4000000D03*
X20980000Y-4000000D03*
%TD*%
%TO.C,C95*%
X11020000Y-10000000D03*
X11980000Y-10000000D03*
%TD*%
%TO.C,C53*%
X14020000Y-22000000D03*
X14980000Y-22000000D03*
%TD*%
%TO.C,C23*%
X2020000Y-7000000D03*
X2980000Y-7000000D03*
%TD*%
%TO.C,C14*%
X17020000Y-7000000D03*
X17980000Y-7000000D03*
%TD*%
%TO.C,C47*%
X11020000Y-16000000D03*
X11980000Y-16000000D03*
%TD*%
%TO.C,C33*%
X17020000Y-16000000D03*
X17980000Y-16000000D03*
%TD*%
%TO.C,C131*%
X20020000Y-25000000D03*
X20980000Y-25000000D03*
%TD*%
%TO.C,C60*%
X32020000Y-16000000D03*
X32980000Y-16000000D03*
%TD*%
%TO.C,C138*%
X47020000Y-25000000D03*
X47980000Y-25000000D03*
%TD*%
%TO.C,C27*%
X35020000Y-19000000D03*
X35980000Y-19000000D03*
%TD*%
%TO.C,C119*%
X38020000Y-10000000D03*
X38980000Y-10000000D03*
%TD*%
%TO.C,C56*%
X17020000Y-10000000D03*
X17980000Y-10000000D03*
%TD*%
%TO.C,C127*%
X23020000Y-7000000D03*
X23980000Y-7000000D03*
%TD*%
%TO.C,C21*%
X5020000Y-7000000D03*
X5980000Y-7000000D03*
%TD*%
%TO.C,C134*%
X41020000Y-4000000D03*
X41980000Y-4000000D03*
%TD*%
%TO.C,C130*%
X23020000Y-25000000D03*
X23980000Y-25000000D03*
%TD*%
%TO.C,C79*%
X35020000Y-13000000D03*
X35980000Y-13000000D03*
%TD*%
%TO.C,C17*%
X11020000Y-7000000D03*
X11980000Y-7000000D03*
%TD*%
%TO.C,C77*%
X29020000Y-16000000D03*
X29980000Y-16000000D03*
%TD*%
%TO.C,C74*%
X47020000Y-13000000D03*
X47980000Y-13000000D03*
%TD*%
%TO.C,C50*%
X5020000Y-19000000D03*
X5980000Y-19000000D03*
%TD*%
%TO.C,C59*%
X26020000Y-10000000D03*
X26980000Y-10000000D03*
%TD*%
%TO.C,C54*%
X26020000Y-4000000D03*
X26980000Y-4000000D03*
%TD*%
%TO.C,C98*%
X5020000Y-16000000D03*
X5980000Y-16000000D03*
%TD*%
%TO.C,C125*%
X32020000Y-25000000D03*
X32980000Y-25000000D03*
%TD*%
%TO.C,C83*%
X17020000Y-19000000D03*
X17980000Y-19000000D03*
%TD*%
%TO.C,C18*%
X8020000Y-7000000D03*
X8980000Y-7000000D03*
%TD*%
%TO.C,C90*%
X47020000Y-16000000D03*
X47980000Y-16000000D03*
%TD*%
%TO.C,C41*%
X2040000Y-22000000D03*
X3000000Y-22000000D03*
%TD*%
%TO.C,C108*%
X44020000Y-22000000D03*
X44980000Y-22000000D03*
%TD*%
%TO.C,C105*%
X11020000Y-25000000D03*
X11980000Y-25000000D03*
%TD*%
%TO.C,C24*%
X5020000Y-4000000D03*
X5980000Y-4000000D03*
%TD*%
D12*
%TO.C,BT1*%
X31350000Y-78140000D03*
D13*
X18650000Y-78140000D03*
%TD*%
D11*
%TO.C,C55*%
X32020000Y-7000000D03*
X32980000Y-7000000D03*
%TD*%
%TO.C,C32*%
X8020000Y-13000000D03*
X8980000Y-13000000D03*
%TD*%
%TO.C,C67*%
X26020000Y-19000000D03*
X26980000Y-19000000D03*
%TD*%
%TO.C,C51*%
X8020000Y-19000000D03*
X8980000Y-19000000D03*
%TD*%
%TO.C,C120*%
X32020000Y-10000000D03*
X32980000Y-10000000D03*
%TD*%
%TO.C,C107*%
X44020000Y-25000000D03*
X44980000Y-25000000D03*
%TD*%
%TO.C,C39*%
X29020000Y-7000000D03*
X29980000Y-7000000D03*
%TD*%
%TO.C,C12*%
X20020000Y-7000000D03*
X20980000Y-7000000D03*
%TD*%
%TO.C,C57*%
X2020000Y-25000000D03*
X2980000Y-25000000D03*
%TD*%
%TO.C,C123*%
X38020000Y-25000000D03*
X38980000Y-25000000D03*
%TD*%
%TO.C,C34*%
X41020000Y-22000000D03*
X41980000Y-22000000D03*
%TD*%
%TO.C,C97*%
X35020000Y-16000000D03*
X35980000Y-16000000D03*
%TD*%
%TO.C,C121*%
X14020000Y-25000000D03*
X14980000Y-25000000D03*
%TD*%
%TO.C,C38*%
X26020000Y-7000000D03*
X26980000Y-7000000D03*
%TD*%
%TO.C,C76*%
X26020000Y-16000000D03*
X26980000Y-16000000D03*
%TD*%
%TO.C,C101*%
X32020000Y-22000000D03*
X32980000Y-22000000D03*
%TD*%
%TO.C,C85*%
X29020000Y-22000000D03*
X29980000Y-22000000D03*
%TD*%
%TO.C,C68*%
X14020000Y-19000000D03*
X14980000Y-19000000D03*
%TD*%
%TO.C,C94*%
X44020000Y-4000000D03*
X44980000Y-4000000D03*
%TD*%
%TO.C,C110*%
X44020000Y-16000000D03*
X44980000Y-16000000D03*
%TD*%
%TO.C,C80*%
X38020000Y-16000000D03*
X38980000Y-16000000D03*
%TD*%
%TO.C,C62*%
X17020000Y-13000000D03*
X17980000Y-13000000D03*
%TD*%
%TO.C,C37*%
X5020000Y-22000000D03*
X5980000Y-22000000D03*
%TD*%
%TO.C,C137*%
X17020000Y-25000000D03*
X17980000Y-25000000D03*
%TD*%
%TO.C,C25*%
X2020000Y-4000000D03*
X2980000Y-4000000D03*
%TD*%
D14*
%TO.C,J1*%
X3550000Y-48560000D03*
X7450000Y-48560000D03*
X3550000Y-47290000D03*
X7450000Y-47290000D03*
X3550000Y-46020000D03*
X7450000Y-46020000D03*
X3550000Y-44750000D03*
X7450000Y-44750000D03*
X3550000Y-43480000D03*
X7450000Y-43480000D03*
X3550000Y-42210000D03*
X7450000Y-42210000D03*
X3550000Y-40940000D03*
X7450000Y-40940000D03*
%TD*%
D11*
%TO.C,C19*%
X14020000Y-4000000D03*
X14980000Y-4000000D03*
%TD*%
%TO.C,C42*%
X47020000Y-7000000D03*
X47980000Y-7000000D03*
%TD*%
%TO.C,C26*%
X47020000Y-4000000D03*
X47980000Y-4000000D03*
%TD*%
%TO.C,C30*%
X2020000Y-10000000D03*
X2980000Y-10000000D03*
%TD*%
%TO.C,C64*%
X14020000Y-13000000D03*
X14980000Y-13000000D03*
%TD*%
%TO.C,C100*%
X17020000Y-22000000D03*
X17980000Y-22000000D03*
%TD*%
%TO.C,C122*%
X47020000Y-22000000D03*
X47980000Y-22000000D03*
%TD*%
%TO.C,C89*%
X8020000Y-25000000D03*
X8980000Y-25000000D03*
%TD*%
%TO.C,C52*%
X11020000Y-19000000D03*
X11980000Y-19000000D03*
%TD*%
%TO.C,C114*%
X23020000Y-19000000D03*
X23980000Y-19000000D03*
%TD*%
%TO.C,C73*%
X5020000Y-25000000D03*
X5980000Y-25000000D03*
%TD*%
%TO.C,C128*%
X41020000Y-25000000D03*
X41980000Y-25000000D03*
%TD*%
%TO.C,C22*%
X8020000Y-4000000D03*
X8980000Y-4000000D03*
%TD*%
%TO.C,C109*%
X44020000Y-19000000D03*
X44980000Y-19000000D03*
%TD*%
%TO.C,C44*%
X29020000Y-19000000D03*
X29980000Y-19000000D03*
%TD*%
%TO.C,C126*%
X29020000Y-25000000D03*
X29980000Y-25000000D03*
%TD*%
%TO.C,C103*%
X41020000Y-7000000D03*
X41980000Y-7000000D03*
%TD*%
%TO.C,C61*%
X5020000Y-13000000D03*
X5980000Y-13000000D03*
%TD*%
%TO.C,C88*%
X23020000Y-10000000D03*
X23980000Y-10000000D03*
%TD*%
%TO.C,C28*%
X38020000Y-13000000D03*
X38980000Y-13000000D03*
%TD*%
%TO.C,C112*%
X44020000Y-7000000D03*
X44980000Y-7000000D03*
%TD*%
%TO.C,C35*%
X11020000Y-22000000D03*
X11980000Y-22000000D03*
%TD*%
%TO.C,C69*%
X26020000Y-22000000D03*
X26980000Y-22000000D03*
%TD*%
%TO.C,C78*%
X32020000Y-13000000D03*
X32980000Y-13000000D03*
%TD*%
%TO.C,C31*%
X14020000Y-16000000D03*
X14980000Y-16000000D03*
%TD*%
%TO.C,C72*%
X20020000Y-10000000D03*
X20980000Y-10000000D03*
%TD*%
%TO.C,C86*%
X32020000Y-4000000D03*
X32980000Y-4000000D03*
%TD*%
%TO.C,C136*%
X35020000Y-10000000D03*
X35980000Y-10000000D03*
%TD*%
%TO.C,C133*%
X38020000Y-22000000D03*
X38980000Y-22000000D03*
%TD*%
%TO.C,C63*%
X8020000Y-16000000D03*
X8980000Y-16000000D03*
%TD*%
%TO.C,C75*%
X26020000Y-13000000D03*
X26980000Y-13000000D03*
%TD*%
%TO.C,C116*%
X20020000Y-22000000D03*
X20980000Y-22000000D03*
%TD*%
%TO.C,C132*%
X23020000Y-22000000D03*
X23980000Y-22000000D03*
%TD*%
%TO.C,C135*%
X41020000Y-10000000D03*
X41980000Y-10000000D03*
%TD*%
%TO.C,C104*%
X29020000Y-10000000D03*
X29980000Y-10000000D03*
%TD*%
%TO.C,C45*%
X8020000Y-10000000D03*
X8980000Y-10000000D03*
%TD*%
%TO.C,C82*%
X2020000Y-16000000D03*
X2980000Y-16000000D03*
%TD*%
%TO.C,C29*%
X5020000Y-10000000D03*
X5980000Y-10000000D03*
%TD*%
%TO.C,C58*%
X47020000Y-10000000D03*
X47980000Y-10000000D03*
%TD*%
%TO.C,C92*%
X23020000Y-16000000D03*
X23980000Y-16000000D03*
%TD*%
%TO.C,C11*%
X23020000Y-4000000D03*
X23980000Y-4000000D03*
%TD*%
%TO.C,C113*%
X41020000Y-13000000D03*
X41980000Y-13000000D03*
%TD*%
%TO.C,C71*%
X35020000Y-7000000D03*
X35980000Y-7000000D03*
%TD*%
%TO.C,C91*%
X23020000Y-13000000D03*
X23980000Y-13000000D03*
%TD*%
%TO.C,C49*%
X20020000Y-16000000D03*
X20980000Y-16000000D03*
%TD*%
%TO.C,C43*%
X32020000Y-19000000D03*
X32980000Y-19000000D03*
%TD*%
%TO.C,C111*%
X44020000Y-10000000D03*
X44980000Y-10000000D03*
%TD*%
M02*
